#N canvas 5 35 1275 725 10;
#X obj 1098 412 print OSC;
#X obj 1040 570 unpack f f f;
#X obj 1184 571 unpack f;
#X obj 1048 471 dumpOSC 32000;
#X obj 1040 536 OSCroute /attention;
#X obj 1193 538 OSCroute /meditation;
#X floatatom 1037 683 0 0 0 0 - - -;
#X obj 1038 637 line 0 100;
#X floatatom 1039 592 5 0 0 0 - - -;
#X msg 1038 613 \$1 1000;
#X floatatom 1180 691 0 1 7 0 - - -;
#X obj 1182 638 line 0 100;
#X floatatom 1183 593 5 0 0 0 - - -;
#X msg 1182 614 \$1 1000;
#X obj 151 75 metro;
#X obj 153 32 tgl 15 0 empty empty empty 17 7 0 10 -262144 -1 -1 0
1;
#X obj 152 116 float;
#X obj 245 114 + 1;
#X obj 151 164 mod 16;
#X floatatom 225 169 5 0 0 0 - - -;
#X obj 154 211 hradio 15 1 0 16 empty empty empty 0 -8 0 16 -262144
-1 -1 0;
#X obj 158 254 select 0 1 2 3 4 5 6 7 8 9 10 11 12 13 14 15;
#X obj 155 461 f;
#X obj 587 233 vsl 15 128 0 127 0 0 empty empty empty 0 -9 0 10 -262144
-1 -1 5700 1;
#X obj 183 462 f;
#X obj 628 231 vsl 15 128 0 127 0 0 empty empty empty 0 -9 0 10 -262144
-1 -1 5700 1;
#X obj 213 462 f;
#X obj 669 231 vsl 15 128 0 127 0 0 empty empty empty 0 -9 0 10 -262144
-1 -1 5700 1;
#X obj 242 462 f;
#X obj 709 231 vsl 15 128 0 127 0 0 empty empty empty 0 -9 0 10 -262144
-1 -1 5700 1;
#X obj 274 462 f;
#X obj 747 231 vsl 15 128 0 127 0 0 empty empty empty 0 -9 0 10 -262144
-1 -1 5700 1;
#X obj 305 462 f;
#X obj 786 231 vsl 15 128 0 127 0 0 empty empty empty 0 -9 0 10 -262144
-1 -1 5700 1;
#X obj 341 464 f;
#X obj 825 231 vsl 15 128 0 127 0 0 empty empty empty 0 -9 0 10 -262144
-1 -1 5700 1;
#X obj 372 464 f;
#X obj 866 231 vsl 15 128 0 127 0 0 empty empty empty 0 -9 0 10 -262144
-1 -1 5700 1;
#X obj 404 464 f;
#X obj 908 231 vsl 15 128 0 127 0 0 empty empty empty 0 -9 0 10 -262144
-1 -1 5700 1;
#X obj 436 466 f;
#X obj 951 231 vsl 15 128 0 127 0 0 empty empty empty 0 -9 0 10 -262144
-1 -1 5700 1;
#X obj 467 467 f;
#X obj 993 231 vsl 15 128 0 127 0 0 empty empty empty 0 -9 0 10 -262144
-1 -1 5700 1;
#X obj 501 467 f;
#X obj 1034 231 vsl 15 128 0 127 0 0 empty empty empty 0 -9 0 10 -262144
-1 -1 5700 1;
#X obj 535 468 f;
#X obj 1074 231 vsl 15 128 0 127 0 0 empty empty empty 0 -9 0 10 -262144
-1 -1 5700 1;
#X obj 569 469 f;
#X obj 1115 231 vsl 15 128 0 127 0 0 empty empty empty 0 -9 0 10 -262144
-1 -1 5700 1;
#X obj 605 467 f;
#X obj 1156 231 vsl 15 128 0 127 0 0 empty empty empty 0 -9 0 10 -262144
-1 -1 5700 1;
#X obj 640 468 f;
#X obj 1202 231 vsl 15 128 0 127 0 0 empty empty empty 0 -9 0 10 -262144
-1 -1 5700 1;
#X obj 144 599 mtof;
#X obj 375 568 * 1.5;
#X obj 140 880 bp~ 220 5;
#X floatatom 425 546 5 0 0 0 - - -;
#X obj 45 53 pddp/dsp;
#X floatatom 1156 204 5 0 0 0 - - -;
#X floatatom 1202 204 5 0 127 0 - - -;
#X floatatom 1115 204 5 0 0 0 - - -;
#X floatatom 1074 204 5 0 0 0 - - -;
#X floatatom 1034 204 5 0 0 0 - - -;
#X floatatom 993 204 5 0 0 0 - - -;
#X floatatom 951 204 5 0 0 0 - - -;
#X floatatom 908 204 5 0 0 0 - - -;
#X floatatom 587 204 5 0 127 0 - - -;
#X floatatom 628 204 5 0 0 0 - - -;
#X floatatom 669 204 5 0 0 0 - - -;
#X floatatom 709 204 5 0 0 0 - - -;
#X floatatom 747 204 5 0 0 0 - - -;
#X floatatom 786 204 5 0 0 0 - - -;
#X floatatom 825 204 5 0 0 0 - - -;
#X floatatom 866 204 5 0 0 0 - - -;
#X text 643 963 freq;
#X text 731 963 reso;
#X obj 140 842 *~;
#X obj 212 823 vline~;
#X msg 193 1059 1 \$2 \, \$4 \$3 \$2;
#X msg 328 1059 0 \$2;
#X obj 323 853 vsl 15 128 0 300 0 0 empty empty empty 0 -9 0 10 -262144
-1 -1 0 1;
#X obj 392 853 vsl 15 128 0 1 0 0 empty empty empty 0 -9 0 10 -262144
-1 -1 5296 1;
#X obj 356 853 vsl 15 128 0 500 0 0 empty empty empty 0 -9 0 10 -262144
-1 -1 4199 1;
#X obj 430 853 vsl 15 128 0 1000 0 0 empty empty empty 0 -9 0 10 -262144
-1 -1 0 1;
#X floatatom 316 999 5 0 0 0 - - -;
#X floatatom 353 1000 5 0 0 0 - - -;
#X floatatom 393 1000 5 0 0 0 - - -;
#X floatatom 438 1000 5 0 0 0 - - -;
#X obj 303 1031 pack f f f f;
#X obj 416 1031 pack f f;
#X obj 140 766 +~;
#X obj 185 737 *~;
#X floatatom 240 696 5 0 100 0 - - -;
#X floatatom 186 666 5 0 200 0 - - -;
#X obj 694 1108 Scope~ 323 346 256 3 128 -1 1 0 0 0 0 102 255 51 135
135 135 0;
#X obj 101 1301 freeverb~;
#X msg 414 1235 wet \$1;
#X obj 417 1195 hsl 36 25 0 1 0 0 empty empty empty -2 -8 0 10 -262144
-1 -1 199 1;
#X obj 417 1259 hsl 36 25 0 1 0 0 empty empty empty -2 -8 0 10 -262144
-1 -1 497 1;
#X msg 414 1291 dry \$1;
#X obj 417 1315 hsl 36 25 0 1 0 0 empty empty empty -2 -8 0 10 -262144
-1 -1 0 1;
#X msg 414 1347 roomsize \$1;
#X obj 106 1350 dac~ 1 2;
#X obj 140 804 phasor~;
#X text 364 641 freq modulacion;
#X text 352 697 indice de modulacion;
#X obj 619 858 vsl 15 128 100 4000 0 0 empty empty empty 0 -9 0 10
-262144 -1 -1 4168 1;
#X obj 1181 663 / 100;
#X obj 707 858 vsl 15 128 0 1 0 0 empty empty empty 0 -9 0 10 -262144
-1 -1 8090 1;
#X obj 354 718 hsl 128 15 0 10 0 0 empty empty empty -2 -8 0 10 -262144
-1 -1 2699 1;
#X obj 356 678 hsl 128 15 0 20 0 0 empty empty empty -2 -8 0 10 -262144
-1 -1 4000 1;
#X obj 140 918 *~ 0.25;
#X obj 86 506 notein;
#X obj 187 689 square~;
#X obj 618 830 spigot;
#X obj 651 806 tgl 15 0 empty empty empty 17 7 0 10 -262144 -1 -1 0
252;
#X obj 459 648 spigot;
#X obj 460 625 tgl 15 0 empty empty empty 17 7 0 10 -262144 -1 -1 0
252;
#X obj 569 806 loadbang;
#X floatatom 619 1001 5 0 0 0 - - -;
#X floatatom 707 1001 5 0 0 0 - - -;
#X obj 765 806 loadbang;
#X msg 765 830 0.637;
#X obj 347 1086 loadbang;
#X msg 350 1110 165.3;
#X obj 404 1086 loadbang;
#X msg 407 1110 0.417;
#X obj 270 633 loadbang;
#X obj 268 747 loadbang;
#X obj 465 34 loadbang;
#X obj 205 10 loadbang;
#X obj 208 61 hsl 128 15 0 300 0 0 empty empty empty -2 -8 0 10 -262144
-1 -1 6397 1;
#X floatatom 206 82 5 0 0 0 - - -;
#X msg 205 32 151.1;
#X obj 464 1152 loadbang;
#X obj 550 1025 maxlib/scale 0 100 100 4000 0;
#X obj 697 830 spigot;
#X obj 730 806 tgl 15 0 empty empty empty 17 7 0 10 -262144 -1 -1 0
252;
#X obj 489 622 maxlib/scale 0 100 0 20 0;
#X obj 622 712 spigot;
#X obj 623 689 tgl 15 0 empty empty empty 17 7 0 10 -262144 -1 -1 0
252;
#X obj 652 686 maxlib/scale 0 100 0 10 0;
#X obj 277 35 spigot;
#X obj 278 12 tgl 15 0 empty empty empty 17 7 0 10 -262144 -1 -1 0
252;
#X floatatom 469 1269 5 0 0 0 - - -;
#X floatatom 467 1203 5 0 0 0 - - -;
#X obj 467 1223 loadbang;
#X msg 470 1247 0.142;
#X floatatom 517 1331 5 0 0 0 - - -;
#X obj 515 1285 loadbang;
#X msg 518 1309 0.0.57;
#X msg 467 1176 0.057;
#X msg 494 56 50;
#X msg 494 79 52;
#X msg 494 102 55;
#X msg 494 125 57;
#X msg 494 148 59;
#X obj 522 35 loadbang;
#X msg 551 57 50;
#X msg 551 80 52;
#X msg 551 103 55;
#X msg 551 126 57;
#X msg 551 149 59;
#X obj 585 36 loadbang;
#X msg 614 58 50;
#X msg 614 81 52;
#X msg 614 104 55;
#X msg 614 127 57;
#X msg 614 150 59;
#X obj 646 36 loadbang;
#X msg 675 58 50;
#X msg 675 81 52;
#X msg 675 104 55;
#X msg 675 127 57;
#X msg 675 150 59;
#X obj 701 37 loadbang;
#X msg 730 59 50;
#X msg 730 82 52;
#X msg 730 105 55;
#X msg 730 128 57;
#X msg 730 151 59;
#X obj 756 37 loadbang;
#X msg 785 59 50;
#X msg 785 82 52;
#X msg 785 105 55;
#X msg 785 128 57;
#X msg 785 151 59;
#X obj 812 37 loadbang;
#X msg 841 59 50;
#X msg 841 82 52;
#X msg 841 105 55;
#X msg 841 128 57;
#X msg 841 151 59;
#X obj 867 36 loadbang;
#X msg 896 58 50;
#X msg 896 81 52;
#X msg 896 104 55;
#X msg 896 127 57;
#X msg 896 150 59;
#X obj 986 38 loadbang;
#X msg 1015 60 50;
#X msg 1015 83 52;
#X msg 1015 106 55;
#X msg 1015 129 57;
#X msg 1015 152 59;
#X obj 1040 38 loadbang;
#X msg 1069 60 50;
#X msg 1069 83 52;
#X msg 1069 106 55;
#X msg 1069 129 57;
#X msg 1069 152 59;
#X obj 1096 37 loadbang;
#X msg 1125 59 50;
#X msg 1125 82 52;
#X msg 1125 105 55;
#X msg 1125 128 57;
#X msg 1125 151 59;
#X obj 1150 38 loadbang;
#X msg 1179 60 50;
#X msg 1179 83 52;
#X msg 1179 106 55;
#X msg 1179 129 57;
#X msg 1179 152 59;
#X obj 1206 38 loadbang;
#X msg 1235 60 50;
#X msg 1235 83 52;
#X msg 1235 106 55;
#X msg 1235 129 57;
#X msg 1235 152 59;
#X obj 1263 39 loadbang;
#X msg 1292 61 50;
#X msg 1292 84 52;
#X msg 1292 107 55;
#X msg 1292 130 57;
#X msg 1292 153 59;
#X obj 1320 38 loadbang;
#X msg 1349 60 50;
#X msg 1349 83 52;
#X msg 1349 106 55;
#X msg 1349 129 57;
#X msg 1349 152 59;
#X text 308 825 attack;
#X text 348 825 decay;
#X text 381 825 sustain;
#X text 428 825 release;
#X msg 269 654 6.299;
#X msg 271 771 2.125;
#X msg 569 830 1380;
#X obj 923 37 loadbang;
#X msg 952 59 50;
#X msg 952 82 52;
#X msg 952 105 55;
#X msg 952 128 57;
#X msg 952 151 59;
#X obj 309 8 maxlib/scale 0 100 50 200 0;
#X connect 1 0 8 0;
#X connect 2 0 12 0;
#X connect 3 0 0 0;
#X connect 3 0 4 0;
#X connect 3 0 5 0;
#X connect 4 0 1 0;
#X connect 5 0 2 0;
#X connect 6 0 117 0;
#X connect 6 0 136 0;
#X connect 6 0 139 0;
#X connect 7 0 6 0;
#X connect 8 0 9 0;
#X connect 9 0 7 0;
#X connect 11 0 108 0;
#X connect 11 0 142 0;
#X connect 11 0 255 0;
#X connect 12 0 13 0;
#X connect 13 0 11 0;
#X connect 14 0 16 0;
#X connect 15 0 14 0;
#X connect 16 0 19 0;
#X connect 16 0 17 0;
#X connect 16 0 18 0;
#X connect 17 0 16 1;
#X connect 18 0 20 0;
#X connect 20 0 21 0;
#X connect 21 0 22 0;
#X connect 21 1 24 0;
#X connect 21 2 26 0;
#X connect 21 3 28 0;
#X connect 21 4 30 0;
#X connect 21 5 32 0;
#X connect 21 6 34 0;
#X connect 21 7 36 0;
#X connect 21 8 38 0;
#X connect 21 9 40 0;
#X connect 21 10 42 0;
#X connect 21 11 44 0;
#X connect 21 12 46 0;
#X connect 21 13 48 0;
#X connect 21 14 50 0;
#X connect 21 15 52 0;
#X connect 22 0 54 0;
#X connect 23 0 22 1;
#X connect 24 0 54 0;
#X connect 25 0 24 1;
#X connect 26 0 54 0;
#X connect 27 0 26 1;
#X connect 28 0 54 0;
#X connect 29 0 28 1;
#X connect 30 0 54 0;
#X connect 31 0 30 1;
#X connect 32 0 54 0;
#X connect 33 0 32 1;
#X connect 34 0 54 0;
#X connect 35 0 34 1;
#X connect 36 0 54 0;
#X connect 37 0 36 1;
#X connect 38 0 54 0;
#X connect 39 0 38 1;
#X connect 40 0 54 0;
#X connect 41 0 40 1;
#X connect 42 0 54 0;
#X connect 43 0 42 1;
#X connect 44 0 54 0;
#X connect 45 0 44 1;
#X connect 46 0 54 0;
#X connect 47 0 46 1;
#X connect 48 0 54 0;
#X connect 49 0 48 1;
#X connect 50 0 54 0;
#X connect 51 0 50 1;
#X connect 52 0 54 0;
#X connect 53 0 52 1;
#X connect 54 0 55 0;
#X connect 54 0 57 0;
#X connect 54 0 91 0;
#X connect 56 0 112 0;
#X connect 57 0 89 0;
#X connect 59 0 51 0;
#X connect 60 0 53 0;
#X connect 61 0 49 0;
#X connect 62 0 47 0;
#X connect 63 0 45 0;
#X connect 64 0 43 0;
#X connect 65 0 41 0;
#X connect 66 0 39 0;
#X connect 67 0 23 0;
#X connect 68 0 25 0;
#X connect 69 0 27 0;
#X connect 70 0 29 0;
#X connect 71 0 31 0;
#X connect 72 0 33 0;
#X connect 73 0 35 0;
#X connect 74 0 37 0;
#X connect 77 0 56 0;
#X connect 78 0 77 1;
#X connect 79 0 78 0;
#X connect 80 0 78 0;
#X connect 81 0 85 0;
#X connect 82 0 87 0;
#X connect 83 0 86 0;
#X connect 84 0 88 0;
#X connect 85 0 89 1;
#X connect 86 0 89 2;
#X connect 87 0 89 3;
#X connect 88 0 90 1;
#X connect 89 0 79 0;
#X connect 90 0 80 0;
#X connect 91 0 104 0;
#X connect 92 0 91 1;
#X connect 93 0 92 1;
#X connect 94 0 114 0;
#X connect 96 0 103 0;
#X connect 96 1 103 1;
#X connect 97 0 96 0;
#X connect 98 0 97 0;
#X connect 98 0 146 0;
#X connect 99 0 100 0;
#X connect 99 0 145 0;
#X connect 100 0 96 0;
#X connect 101 0 102 0;
#X connect 101 0 149 0;
#X connect 102 0 96 0;
#X connect 104 0 77 0;
#X connect 107 0 56 1;
#X connect 107 0 120 0;
#X connect 108 0 10 0;
#X connect 108 0 137 0;
#X connect 109 0 56 2;
#X connect 109 0 121 0;
#X connect 110 0 93 0;
#X connect 111 0 94 0;
#X connect 112 0 96 0;
#X connect 112 0 96 1;
#X connect 112 0 95 0;
#X connect 113 0 54 0;
#X connect 114 0 92 0;
#X connect 115 0 107 0;
#X connect 116 0 115 1;
#X connect 117 0 111 0;
#X connect 118 0 117 1;
#X connect 119 0 248 0;
#X connect 122 0 123 0;
#X connect 123 0 109 0;
#X connect 124 0 125 0;
#X connect 125 0 83 0;
#X connect 126 0 127 0;
#X connect 127 0 82 0;
#X connect 128 0 246 0;
#X connect 129 0 247 0;
#X connect 130 0 157 0;
#X connect 130 0 153 0;
#X connect 130 0 154 0;
#X connect 130 0 155 0;
#X connect 130 0 156 0;
#X connect 131 0 134 0;
#X connect 132 0 133 0;
#X connect 133 0 14 1;
#X connect 134 0 132 0;
#X connect 135 0 152 0;
#X connect 136 0 115 0;
#X connect 137 0 109 0;
#X connect 138 0 137 1;
#X connect 139 0 117 0;
#X connect 140 0 110 0;
#X connect 141 0 140 1;
#X connect 142 0 140 0;
#X connect 143 0 132 0;
#X connect 144 0 143 1;
#X connect 147 0 148 0;
#X connect 148 0 99 0;
#X connect 150 0 151 0;
#X connect 151 0 101 0;
#X connect 152 0 98 0;
#X connect 153 0 67 0;
#X connect 154 0 67 0;
#X connect 155 0 67 0;
#X connect 156 0 67 0;
#X connect 157 0 67 0;
#X connect 158 0 163 0;
#X connect 158 0 159 0;
#X connect 158 0 160 0;
#X connect 158 0 161 0;
#X connect 158 0 162 0;
#X connect 159 0 68 0;
#X connect 160 0 68 0;
#X connect 161 0 68 0;
#X connect 162 0 68 0;
#X connect 163 0 68 0;
#X connect 164 0 169 0;
#X connect 164 0 165 0;
#X connect 164 0 166 0;
#X connect 164 0 167 0;
#X connect 164 0 168 0;
#X connect 165 0 69 0;
#X connect 166 0 69 0;
#X connect 167 0 69 0;
#X connect 168 0 69 0;
#X connect 169 0 69 0;
#X connect 170 0 175 0;
#X connect 170 0 171 0;
#X connect 170 0 172 0;
#X connect 170 0 173 0;
#X connect 170 0 174 0;
#X connect 171 0 70 0;
#X connect 172 0 70 0;
#X connect 173 0 70 0;
#X connect 174 0 70 0;
#X connect 175 0 70 0;
#X connect 176 0 181 0;
#X connect 176 0 177 0;
#X connect 176 0 178 0;
#X connect 176 0 179 0;
#X connect 176 0 180 0;
#X connect 177 0 71 0;
#X connect 178 0 71 0;
#X connect 179 0 71 0;
#X connect 180 0 71 0;
#X connect 181 0 71 0;
#X connect 182 0 187 0;
#X connect 182 0 183 0;
#X connect 182 0 184 0;
#X connect 182 0 185 0;
#X connect 182 0 186 0;
#X connect 183 0 72 0;
#X connect 184 0 72 0;
#X connect 185 0 72 0;
#X connect 186 0 72 0;
#X connect 187 0 72 0;
#X connect 188 0 193 0;
#X connect 188 0 189 0;
#X connect 188 0 190 0;
#X connect 188 0 191 0;
#X connect 188 0 192 0;
#X connect 189 0 73 0;
#X connect 190 0 73 0;
#X connect 191 0 73 0;
#X connect 192 0 73 0;
#X connect 193 0 73 0;
#X connect 194 0 199 0;
#X connect 194 0 195 0;
#X connect 194 0 196 0;
#X connect 194 0 197 0;
#X connect 194 0 198 0;
#X connect 195 0 74 0;
#X connect 196 0 74 0;
#X connect 197 0 74 0;
#X connect 198 0 74 0;
#X connect 199 0 74 0;
#X connect 200 0 205 0;
#X connect 200 0 201 0;
#X connect 200 0 202 0;
#X connect 200 0 203 0;
#X connect 200 0 204 0;
#X connect 201 0 65 0;
#X connect 202 0 65 0;
#X connect 203 0 65 0;
#X connect 204 0 65 0;
#X connect 205 0 65 0;
#X connect 206 0 211 0;
#X connect 206 0 207 0;
#X connect 206 0 208 0;
#X connect 206 0 209 0;
#X connect 206 0 210 0;
#X connect 207 0 64 0;
#X connect 208 0 64 0;
#X connect 209 0 64 0;
#X connect 210 0 64 0;
#X connect 211 0 64 0;
#X connect 212 0 217 0;
#X connect 212 0 213 0;
#X connect 212 0 214 0;
#X connect 212 0 215 0;
#X connect 212 0 216 0;
#X connect 213 0 63 0;
#X connect 214 0 63 0;
#X connect 215 0 63 0;
#X connect 216 0 63 0;
#X connect 217 0 63 0;
#X connect 218 0 223 0;
#X connect 218 0 219 0;
#X connect 218 0 220 0;
#X connect 218 0 221 0;
#X connect 218 0 222 0;
#X connect 219 0 62 0;
#X connect 220 0 62 0;
#X connect 221 0 62 0;
#X connect 222 0 62 0;
#X connect 223 0 62 0;
#X connect 224 0 229 0;
#X connect 224 0 225 0;
#X connect 224 0 226 0;
#X connect 224 0 227 0;
#X connect 224 0 228 0;
#X connect 225 0 61 0;
#X connect 226 0 61 0;
#X connect 227 0 61 0;
#X connect 228 0 61 0;
#X connect 229 0 61 0;
#X connect 230 0 235 0;
#X connect 230 0 231 0;
#X connect 230 0 232 0;
#X connect 230 0 233 0;
#X connect 230 0 234 0;
#X connect 231 0 59 0;
#X connect 232 0 59 0;
#X connect 233 0 59 0;
#X connect 234 0 59 0;
#X connect 235 0 59 0;
#X connect 236 0 241 0;
#X connect 236 0 237 0;
#X connect 236 0 238 0;
#X connect 236 0 239 0;
#X connect 236 0 240 0;
#X connect 237 0 60 0;
#X connect 238 0 60 0;
#X connect 239 0 60 0;
#X connect 240 0 60 0;
#X connect 241 0 60 0;
#X connect 246 0 111 0;
#X connect 247 0 110 0;
#X connect 248 0 107 0;
#X connect 249 0 254 0;
#X connect 249 0 250 0;
#X connect 249 0 251 0;
#X connect 249 0 252 0;
#X connect 249 0 253 0;
#X connect 250 0 66 0;
#X connect 251 0 66 0;
#X connect 252 0 66 0;
#X connect 253 0 66 0;
#X connect 254 0 66 0;
#X connect 255 0 143 0;
