#N canvas 31 22 1280 752 12;
#X floatatom -119 166 5 0 0 0 - - -;
#X obj -118 244 *~;
#X floatatom -61 151 5 0 1 0 - - -;
#X floatatom 74 169 5 0 0 0 - - -;
#X obj 75 219 *~;
#X floatatom 132 152 5 0 0 0 - - -;
#X floatatom 268 170 5 0 0 0 - - -;
#X obj 268 225 *~;
#X floatatom 322 172 5 0 0 0 - - -;
#X floatatom 466 178 5 0 0 0 - - -;
#X obj 467 229 *~;
#X floatatom 522 166 5 0 0 0 - - -;
#X floatatom 662 182 5 0 0 0 - - -;
#X obj 662 231 *~;
#X floatatom 710 180 5 0 0 0 - - -;
#X floatatom 857 190 5 0 0 0 - - -;
#X obj 857 211 osc~;
#X obj 858 237 *~;
#X floatatom 905 188 5 0 0 0 - - -;
#X floatatom 1060 193 5 0 0 0 - - -;
#X obj 1060 214 osc~;
#X obj 1060 236 *~;
#X floatatom 1118 174 5 0 0 0 - - -;
#X obj -119 -62 print OSC;
#X obj 1284 -121 unpack f f f;
#X obj 1456 -125 unpack f;
#X obj 1456 -159 OSCroute /attention;
#X obj 1284 -155 OSCroute /meditation;
#X obj 285 -103 unpack f;
#X obj 431 -103 unpack f;
#X obj 573 -103 unpack f;
#X obj 705 -103 unpack f;
#X obj 842 -103 unpack f;
#X obj 286 -127 OSCroute /lowAlpha;
#X obj 421 -129 OSCroute /highAlpha;
#X obj 574 -127 OSCroute /lowBeta;
#X obj 706 -127 OSCroute /highBeta;
#X obj 998 -103 unpack f;
#X obj 21 -103 unpack f;
#X obj 158 -103 unpack f;
#X obj 843 -127 OSCroute /lowGamma;
#X obj 999 -127 OSCroute /highGamma;
#X obj 22 -127 OSCroute /delta;
#X obj 159 -127 OSCroute /theta;
#X floatatom 1284 14 0 0 0 0 - - -;
#X obj 1284 -20 line 0 100;
#X floatatom 1284 -87 5 0 0 0 - - -;
#X msg 1284 -54 \$1 1000;
#X floatatom 284 -5 0 0 0 0 - - -;
#X obj 284 -30 line 0 100;
#X floatatom 284 -78 5 0 0 0 - - -;
#X floatatom 1456 10 0 0 0 0 - - -;
#X obj 1456 -24 line 0 100;
#X floatatom 1452 -84 5 0 0 0 - - -;
#X msg 1456 -58 \$1 1000;
#X floatatom 430 -5 0 0 0 0 - - -;
#X obj 430 -30 line 0 100;
#X floatatom 430 -78 5 0 0 0 - - -;
#X msg 430 -55 \$1 1000;
#X floatatom 704 -5 0 0 0 0 - - -;
#X obj 704 -30 line 0 100;
#X floatatom 704 -78 5 0 0 0 - - -;
#X msg 704 -55 \$1 1000;
#X floatatom 572 -3 0 0 0 0 - - -;
#X obj 572 -30 line 0 100;
#X floatatom 572 -78 5 0 0 0 - - -;
#X msg 572 -55 \$1 1000;
#X floatatom 841 -5 0 0 0 0 - - -;
#X obj 841 -30 line 0 100;
#X floatatom 841 -78 5 0 0 0 - - -;
#X msg 841 -55 \$1 1000;
#X floatatom 20 -5 0 0 0 0 - - -;
#X obj 20 -30 line 0 100;
#X floatatom 20 -78 5 0 0 0 - - -;
#X msg 20 -55 \$1 1000;
#X floatatom 997 -2 0 0 0 0 - - -;
#X obj 997 -30 line 0 100;
#X floatatom 997 -78 5 0 0 0 - - -;
#X msg 997 -55 \$1 1000;
#X floatatom 157 -5 0 0 0 0 - - -;
#X obj 157 -30 line 0 100;
#X floatatom 157 -78 5 0 0 0 - - -;
#X msg 157 -55 \$1 1000;
#X obj -97 -146 pddp/dsp;
#X floatatom 1267 190 5 0 0 0 - - -;
#X obj 1268 214 osc~;
#X obj 1267 243 *~;
#X floatatom 1337 192 5 0 0 0 - - -;
#X obj 662 203 osc~;
#X obj 466 200 osc~;
#X obj 268 191 osc~;
#X obj 74 190 osc~;
#X obj -119 197 osc~;
#X obj -23 500 dac~ 1;
#X obj 506 493 dac~ 2;
#X msg 284 -55 \$1 1000;
#X obj -22 439 freeverb~;
#X msg 116 398 wet \$1;
#X obj 119 364 hsl 36 25 0 1 0 0 empty empty empty -2 -8 0 10 -262144
-1 -1 875 1;
#X obj 127 427 hsl 36 25 0 1 0 0 empty empty empty -2 -8 0 10 -262144
-1 -1 1290 1;
#X msg 116 457 dry \$1;
#X obj 119 484 hsl 36 25 0 1 0 0 empty empty empty -2 -8 0 10 -262144
-1 -1 600 1;
#X msg 116 516 roomsize \$1;
#X obj 505 420 freeverb~;
#X msg 620 377 wet \$1;
#X obj 623 343 hsl 36 25 0 1 0 0 empty empty empty -2 -8 0 10 -262144
-1 -1 1400 1;
#X obj 627 405 hsl 36 25 0 1 0 0 empty empty empty -2 -8 0 10 -262144
-1 -1 1603 1;
#X msg 620 436 dry \$1;
#X obj 625 464 hsl 36 25 0 1 0 0 empty empty empty -2 -8 0 10 -262144
-1 -1 200 1;
#X msg 620 495 roomsize \$1;
#X text 988 -226 los niveles de atencion controlan el volumen;
#X text 533 -239 Las bandas del EEG (delta \, theta \, alfa \, beta
y gamma) controlan la amplitud de los armonicos;
#X obj 818 324 Scope~ 271 254 256 3 128 -1 1 0 0 0 0 102 255 51 135
135 135 0;
#X obj 1096 328 Scope~ 268 247 256 3 128 -1 1 0 0 0 0 102 255 51 135
135 135 0;
#X obj -121 115 loadbang;
#X obj 73 118 loadbang;
#X obj 267 117 loadbang;
#X obj 466 127 loadbang;
#X obj 662 128 loadbang;
#X obj 856 133 loadbang;
#X obj 1062 138 loadbang;
#X obj 1267 136 loadbang;
#X msg -120 141 43;
#X msg 74 141 86;
#X msg 267 140 129;
#X msg 466 152 172;
#X text 82 150;
#X text 275 142;
#X text 473 161;
#X text 670 158;
#X text 870 162;
#X text 1070 163;
#X text 1263 201;
#X msg 662 151 43;
#X msg 857 161 86;
#X msg 1062 163 129;
#X msg 1267 164 172;
#X text 370 76;
#X text 1077 92;
#X text -2 19;
#X obj 269 87 maxlib/scale 0 65536 0 1 0;
#X obj 466 88 maxlib/scale 0 65536 0 1 0;
#X text 1069 204;
#X obj 669 87 maxlib/scale 0 65536 0 1 0;
#X obj 866 86 maxlib/scale 0 65536 0 1 0;
#X obj 1063 87 maxlib/scale 0 65536 0 1 0;
#X text -96 -248 BINAURAL FEEDBACK sintesis aditiva intervenida con
EEG para sistema de audio cuadrafonico (neurofeedback musico-visual-espacial)
;
#X obj -61 183 phasor~;
#X obj 131 182 phasor~;
#X obj 322 197 phasor~;
#X obj 522 193 phasor~;
#X obj 709 204 phasor~;
#X obj 905 215 phasor~;
#X obj 1117 198 phasor~;
#X obj 1338 218 phasor~;
#X obj 437 -210 dumpOSC 32000;
#X obj 243 313 +~;
#X obj 543 298 +~;
#X obj 1265 88 maxlib/scale 0 65536 0 1 0;
#X obj 304 236 loadbang;
#X obj 519 247 loadbang;
#X obj 1254 49 maxlib/scale 0 100 0 1 0;
#X obj 1450 48 maxlib/scale 0 100 0 1 0;
#X obj -118 86 maxlib/scale 0 655366 0 1 0;
#X obj 73 87 maxlib/scale 0 655366 0 1 0;
#X msg 303 266 0.2;
#X msg 520 273 0.2;
#X obj 62 305 loadbang;
#X msg 61 335 0.25;
#X connect 0 0 92 0;
#X connect 1 0 156 0;
#X connect 2 0 147 0;
#X connect 3 0 91 0;
#X connect 4 0 156 0;
#X connect 5 0 148 0;
#X connect 6 0 90 0;
#X connect 7 0 156 0;
#X connect 8 0 149 0;
#X connect 9 0 89 0;
#X connect 10 0 156 0;
#X connect 11 0 150 0;
#X connect 12 0 88 0;
#X connect 13 0 157 0;
#X connect 14 0 151 0;
#X connect 15 0 16 0;
#X connect 16 0 17 0;
#X connect 17 0 157 0;
#X connect 18 0 152 0;
#X connect 19 0 20 0;
#X connect 20 0 21 0;
#X connect 21 0 157 0;
#X connect 22 0 153 0;
#X connect 24 0 46 0;
#X connect 25 0 53 0;
#X connect 26 0 25 0;
#X connect 27 0 24 0;
#X connect 28 0 50 0;
#X connect 29 0 57 0;
#X connect 30 0 65 0;
#X connect 31 0 61 0;
#X connect 32 0 69 0;
#X connect 33 0 28 0;
#X connect 34 0 29 0;
#X connect 35 0 30 0;
#X connect 36 0 31 0;
#X connect 37 0 77 0;
#X connect 38 0 73 0;
#X connect 39 0 81 0;
#X connect 40 0 32 0;
#X connect 41 0 37 0;
#X connect 42 0 38 0;
#X connect 43 0 39 0;
#X connect 44 0 161 0;
#X connect 45 0 44 0;
#X connect 46 0 47 0;
#X connect 47 0 45 0;
#X connect 48 0 140 0;
#X connect 49 0 48 0;
#X connect 50 0 95 0;
#X connect 51 0 162 0;
#X connect 52 0 51 0;
#X connect 53 0 54 0;
#X connect 54 0 52 0;
#X connect 55 0 141 0;
#X connect 56 0 55 0;
#X connect 57 0 58 0;
#X connect 58 0 56 0;
#X connect 59 0 144 0;
#X connect 60 0 59 0;
#X connect 61 0 62 0;
#X connect 62 0 60 0;
#X connect 63 0 143 0;
#X connect 64 0 63 0;
#X connect 65 0 66 0;
#X connect 66 0 64 0;
#X connect 67 0 145 0;
#X connect 68 0 67 0;
#X connect 69 0 70 0;
#X connect 70 0 68 0;
#X connect 71 0 163 0;
#X connect 72 0 71 0;
#X connect 73 0 74 0;
#X connect 74 0 72 0;
#X connect 75 0 158 0;
#X connect 76 0 75 0;
#X connect 77 0 78 0;
#X connect 78 0 76 0;
#X connect 79 0 164 0;
#X connect 80 0 79 0;
#X connect 81 0 82 0;
#X connect 82 0 80 0;
#X connect 84 0 85 0;
#X connect 85 0 86 0;
#X connect 86 0 157 0;
#X connect 87 0 154 0;
#X connect 88 0 13 0;
#X connect 89 0 10 0;
#X connect 90 0 7 0;
#X connect 91 0 4 0;
#X connect 92 0 1 0;
#X connect 95 0 49 0;
#X connect 96 0 93 0;
#X connect 97 0 96 0;
#X connect 98 0 97 0;
#X connect 99 0 100 0;
#X connect 100 0 96 0;
#X connect 101 0 102 0;
#X connect 102 0 96 0;
#X connect 103 0 94 0;
#X connect 104 0 103 0;
#X connect 105 0 104 0;
#X connect 106 0 107 0;
#X connect 107 0 103 0;
#X connect 108 0 109 0;
#X connect 109 0 103 0;
#X connect 114 0 122 0;
#X connect 115 0 123 0;
#X connect 116 0 124 0;
#X connect 117 0 125 0;
#X connect 118 0 133 0;
#X connect 119 0 134 0;
#X connect 120 0 135 0;
#X connect 121 0 136 0;
#X connect 122 0 0 0;
#X connect 123 0 3 0;
#X connect 124 0 6 0;
#X connect 125 0 9 0;
#X connect 133 0 12 0;
#X connect 134 0 15 0;
#X connect 135 0 19 0;
#X connect 136 0 84 0;
#X connect 140 0 8 0;
#X connect 141 0 11 0;
#X connect 143 0 14 0;
#X connect 144 0 18 0;
#X connect 145 0 22 0;
#X connect 147 0 1 1;
#X connect 148 0 4 1;
#X connect 149 0 7 1;
#X connect 150 0 10 1;
#X connect 151 0 13 1;
#X connect 152 0 17 1;
#X connect 153 0 21 1;
#X connect 154 0 86 1;
#X connect 155 0 23 0;
#X connect 155 0 26 0;
#X connect 155 0 27 0;
#X connect 155 0 33 0;
#X connect 155 0 34 0;
#X connect 155 0 35 0;
#X connect 155 0 36 0;
#X connect 155 0 40 0;
#X connect 155 0 41 0;
#X connect 155 0 42 0;
#X connect 155 0 43 0;
#X connect 156 0 96 0;
#X connect 156 0 112 0;
#X connect 157 0 103 0;
#X connect 157 0 113 0;
#X connect 158 0 87 0;
#X connect 159 0 165 0;
#X connect 160 0 166 0;
#X connect 162 0 106 0;
#X connect 163 0 2 0;
#X connect 164 0 5 0;
#X connect 165 0 156 1;
#X connect 166 0 157 1;
#X connect 167 0 168 0;
#X connect 168 0 98 0;
